<svg width="98" height="80" viewBox="0 0 98 80" fill="none" xmlns="http://www.w3.org/2000/svg">
<rect width="98" height="80" fill="black" fill-opacity="0"/>
<rect width="98" height="80" fill="black" fill-opacity="0"/>
<path d="M50.5806 65.9638V18.9089C50.5806 18.0384 49.8731 17.333 49 17.333C48.1268 17.333 47.4193 18.0384 47.4193 18.9089V65.9638C47.4193 66.8343 48.1268 67.5397 49 67.5397C49.8731 67.5397 50.5806 66.8343 50.5806 65.9638Z" fill="#284997"/>
<path d="M96.4194 7.07155C93.0777 7.07155 88.9136 5.63396 84.5049 4.11212C78.9216 2.18454 72.5929 0 66.0297 0C58.4352 0 53.802 3.31789 51.2527 6.10125C50.2993 7.14257 49.5604 8.18599 49.0002 9.11154C48.44 8.18599 47.7011 7.14257 46.7477 6.10125C44.1982 3.31789 39.5652 0 31.9708 0C25.4073 0 19.0788 2.18454 13.4955 4.11212C9.08639 5.63396 4.92234 7.07155 1.58065 7.07155C0.707497 7.07155 0 7.7769 0 8.6474V72.1208C0 72.9913 0.707497 73.6966 1.58065 73.6966C5.45428 73.6966 9.86259 72.1748 14.5295 70.5636C19.8774 68.7176 25.9388 66.6251 31.9703 66.6251C37.1422 66.6251 41.3284 68.3324 44.4128 71.6997C45.0012 72.3422 46.0012 72.3874 46.6459 71.8006C47.2906 71.2137 47.3357 70.2169 46.7471 69.5742C44.1976 66.7911 39.5646 63.4732 31.9703 63.4732C25.4069 63.4732 19.0784 65.6577 13.4951 67.5853C9.75743 68.876 6.19529 70.1054 3.16129 70.45V10.1451C6.63681 9.815 10.486 8.48603 14.5295 7.09025C19.8774 5.2442 25.9388 3.15169 31.9703 3.15169C44.1689 3.15169 47.3606 12.8089 47.4889 13.2148C47.6929 13.8763 48.3058 14.328 49 14.328C49.6942 14.328 50.3071 13.8765 50.5111 13.2148C50.5419 13.1142 53.7531 3.15169 66.0297 3.15169C72.0612 3.15169 78.1227 5.2442 83.4705 7.09025C87.5142 8.48624 91.3632 9.815 94.8387 10.1451V70.45C91.8047 70.1054 88.2426 68.876 84.5049 67.5855C78.9216 65.6579 72.5929 63.4734 66.0297 63.4734C58.435 63.4734 53.8018 66.7913 51.2527 69.5746C50.6641 70.2176 50.7094 71.2141 51.3539 71.801C51.9988 72.3878 52.9986 72.3427 53.587 71.7001C56.6714 68.3327 60.8576 66.6253 66.0297 66.6253C72.0612 66.6253 78.1227 68.7178 83.4705 70.5638C88.1376 72.175 92.5459 73.6968 96.4194 73.6968C97.2925 73.6968 98 72.9915 98 72.121V8.6474C98 7.77711 97.2925 7.07155 96.4194 7.07155Z" fill="#284997"/>
<path d="M96.4193 76.8484C93.0777 76.8484 88.9136 75.4108 84.5049 73.889C78.9216 71.9614 72.5929 69.7769 66.0297 69.7769C58.8972 69.7769 54.3769 72.7033 51.7415 75.365L46.2583 75.3648C43.6229 72.7031 39.1024 69.7769 31.9703 69.7769C25.4069 69.7769 19.0784 71.9614 13.4951 73.889C9.08639 75.4108 4.92234 76.8484 1.58065 76.8484C0.707497 76.8484 0 77.5538 0 78.4243C0 79.2948 0.707497 80.0001 1.58065 80.0001C5.45428 80.0001 9.86259 78.4783 14.5295 76.8671C19.8773 75.0211 25.9388 72.9285 31.9703 72.9285C37.1422 72.9285 41.3284 74.6359 44.4128 78.0032C44.7122 78.3301 45.1358 78.5163 45.5799 78.5163L52.4197 78.5165C52.8637 78.5165 53.2873 78.3301 53.5868 78.0034C56.6712 74.6359 60.8574 72.9285 66.0294 72.9285C72.061 72.9285 78.1224 75.0211 83.4703 76.8671C88.1374 78.4783 92.5457 80.0001 96.4191 80.0001C97.2923 80.0001 97.9998 79.2948 97.9998 78.4243C97.9998 77.5538 97.2925 76.8484 96.4193 76.8484Z" fill="#284997"/>
</svg>
