<svg width="54" height="80" viewBox="0 0 54 80" fill="none" xmlns="http://www.w3.org/2000/svg">
<rect width="54" height="80" fill="black" fill-opacity="0"/>
<rect width="54" height="80" fill="black" fill-opacity="0"/>
<path d="M52.6981 7.30878L27.4908 0.0689593C27.4807 0.0660634 27.4705 0.0651584 27.4605 0.0624435C27.4021 0.0466969 27.3426 0.0342082 27.282 0.0244344C27.2624 0.0213575 27.2429 0.0179186 27.2232 0.0153846C27.1513 0.00633484 27.0786 0.000361991 27.0044 0C27.003 0.000180996 27.0013 0 26.9999 0C26.9237 0 26.8492 0.00633484 26.7755 0.0157466C26.7578 0.0180996 26.7401 0.0211765 26.7223 0.0238914C26.6583 0.0340272 26.5954 0.0472398 26.5338 0.0640724C26.5261 0.0662444 26.518 0.0667874 26.5103 0.0691403L26.4704 0.080543C26.4689 0.081086 26.4673 0.081448 26.4657 0.08181L1.30174 7.30878C0.531343 7.53014 0 8.24091 0 9.04978V78.1901C0 78.7577 0.26361 79.2923 0.711981 79.6342C1.16035 79.9765 1.74151 80.0862 2.28217 79.9309L27.0006 72.8319L51.7178 79.9309C51.8791 79.9772 52.044 79.9999 52.208 79.9999C52.5934 79.9999 52.9735 79.8742 53.288 79.6342C53.7364 79.2922 54 78.7575 54 78.1899V9.04978C54 8.24091 53.4685 7.53014 52.6981 7.30878ZM3.5841 10.4168L25.2079 4.20652V69.5834L3.5841 75.7937V10.4168ZM50.4159 75.7937L28.792 69.583V4.20616L50.4159 10.4168V75.7937Z" fill="#284997"/>
<path d="M33.6783 14.6596L44.5493 17.7818C44.7132 17.8289 44.8781 17.8513 45.0403 17.8513C45.8209 17.8513 46.539 17.332 46.7632 16.536C47.0339 15.5744 46.4816 14.5735 45.5297 14.3L34.6588 11.1778C33.7066 10.9045 32.7156 11.4624 32.4449 12.4236C32.1741 13.3851 32.7264 14.3862 33.6783 14.6596Z" fill="#284997"/>
<path d="M33.6783 23.7094L44.5493 26.8316C44.7132 26.8786 44.8781 26.9011 45.0403 26.9011C45.8209 26.9011 46.539 26.3818 46.7632 25.5858C47.0339 24.6241 46.4816 23.6232 45.5297 23.3498L34.6588 20.2276C33.7066 19.9537 32.7156 20.5121 32.4449 21.4734C32.1741 22.4348 32.7264 23.4359 33.6783 23.7094Z" fill="#284997"/>
<path d="M33.6783 32.7591L44.5493 35.8813C44.7132 35.9284 44.8781 35.9508 45.0403 35.9508C45.8209 35.9508 46.539 35.4315 46.7632 34.6355C47.0339 33.6739 46.4816 32.673 45.5297 32.3995L34.6588 29.2773C33.7066 29.0037 32.7156 29.5619 32.4449 30.5231C32.1741 31.4846 32.7264 32.4857 33.6783 32.7591Z" fill="#284997"/>
<path d="M33.6783 65.7002L44.5493 68.8224C44.7106 68.8687 44.8754 68.8913 45.0394 68.8913C45.4249 68.8913 45.805 68.7657 46.1195 68.5255C46.5678 68.1835 46.8314 67.6488 46.8314 67.0814V43.19C46.8314 42.3811 46.2999 41.6703 45.5295 41.449L34.6586 38.3268C34.1181 38.1717 33.5368 38.2814 33.0884 38.6234C32.64 38.9655 32.3764 39.5002 32.3764 40.0676V63.959C32.3764 64.7681 32.9079 65.4788 33.6783 65.7002ZM35.9605 42.4642L43.2473 44.557V64.685L35.9605 62.5921V42.4642Z" fill="#284997"/>
<path d="M19.342 62.2181L8.46977 65.3405C7.51783 65.614 6.96552 66.615 7.2363 67.5765C7.4603 68.3725 8.17838 68.8918 8.95918 68.8918C9.12136 68.8918 9.2864 68.8693 9.4502 68.8223L20.3224 65.6999C21.2743 65.4264 21.8266 64.4254 21.5559 63.4639C21.2851 62.5026 20.2937 61.9448 19.342 62.2181Z" fill="#284997"/>
<path d="M8.95899 17.8513C9.12117 17.8513 9.28621 17.8289 9.45001 17.7818L20.3222 14.6595C21.2741 14.386 21.8264 13.3849 21.5557 12.4235C21.2851 11.462 20.2935 10.9042 19.3418 11.1777L8.46958 14.3C7.51764 14.5735 6.96533 15.5746 7.23611 16.536C7.46029 17.3321 8.17819 17.8513 8.95899 17.8513Z" fill="#284997"/>
<path d="M19.342 20.2272L8.46977 23.3495C7.51783 23.623 6.96552 24.6241 7.2363 25.5855C7.4603 26.3815 8.17838 26.9008 8.95918 26.9008C9.12136 26.9008 9.2864 26.8784 9.4502 26.8313L20.3224 23.709C21.2743 23.4355 21.8266 22.4344 21.5559 21.4729C21.2851 20.5117 20.2937 19.9538 19.342 20.2272Z" fill="#284997"/>
</svg>
