<svg width="107" height="80" viewBox="0 0 107 80" fill="none" xmlns="http://www.w3.org/2000/svg">
<rect width="107" height="80" fill="black" fill-opacity="0"/>
<path d="M101.984 70H5.01562C4.09071 70 3.34375 69.2554 3.34375 68.3333V11.6667C3.34375 10.7471 4.09071 10 5.01562 10H101.984C102.909 10 103.656 10.7471 103.656 11.6667V68.3333C103.656 69.2554 102.909 70 101.984 70ZM6.6875 66.6667H100.312V13.3333H6.6875V66.6667Z" fill="#284997"/>
<path d="M10.0312 13.3333C9.10633 13.3333 8.35938 12.5863 8.35938 11.6667V6.66667C8.35938 5.74707 9.10633 5 10.0312 5C10.9562 5 11.7031 5.74707 11.7031 6.66667V11.6667C11.7031 12.5863 10.9562 13.3333 10.0312 13.3333Z" fill="#284997"/>
<path d="M96.9688 13.3333C96.0438 13.3333 95.2969 12.5863 95.2969 11.6667V6.66667C95.2969 5.74707 96.0438 5 96.9688 5C97.8937 5 98.6406 5.74707 98.6406 6.66667V11.6667C98.6406 12.5863 97.8937 13.3333 96.9688 13.3333Z" fill="#284997"/>
<path d="M96.9688 8.33333H10.0312C9.10633 8.33333 8.35938 7.58626 8.35938 6.66667C8.35938 5.74707 9.10633 5 10.0312 5H96.9688C97.8937 5 98.6406 5.74707 98.6406 6.66667C98.6406 7.58626 97.8937 8.33333 96.9688 8.33333Z" fill="#284997"/>
<path d="M15.0469 8.33333C14.122 8.33333 13.375 7.58626 13.375 6.66667V1.66667C13.375 0.74707 14.122 0 15.0469 0C15.9718 0 16.7188 0.74707 16.7188 1.66667V6.66667C16.7188 7.58626 15.9718 8.33333 15.0469 8.33333Z" fill="#284997"/>
<path d="M91.9531 8.33333C91.0282 8.33333 90.2812 7.58626 90.2812 6.66667V1.66667C90.2812 0.74707 91.0282 0 91.9531 0C92.878 0 93.625 0.74707 93.625 1.66667V6.66667C93.625 7.58626 92.878 8.33333 91.9531 8.33333Z" fill="#284997"/>
<path d="M91.9531 3.33333H15.0469C14.122 3.33333 13.375 2.58626 13.375 1.66667C13.375 0.74707 14.122 0 15.0469 0H91.9531C92.878 0 93.625 0.74707 93.625 1.66667C93.625 2.58626 92.878 3.33333 91.9531 3.33333Z" fill="#284997"/>
<path d="M33.4375 58.3333C23.2977 58.3333 15.0469 50.1082 15.0469 40C15.0469 29.8917 23.2977 21.6666 33.4375 21.6666C43.5773 21.6666 51.8281 29.8917 51.8281 40C51.8281 50.1082 43.5773 58.3333 33.4375 58.3333ZM33.4375 25C25.1402 25 18.3906 31.7301 18.3906 40C18.3906 48.2714 25.1402 55 33.4375 55C41.7348 55 48.4844 48.2714 48.4844 40C48.4844 31.7301 41.7348 25 33.4375 25Z" fill="#284997"/>
<path d="M33.4375 46.6667C28.8284 46.6667 25.0781 42.9281 25.0781 38.3333C25.0781 33.7386 28.8284 30 33.4375 30C38.0466 30 41.7969 33.7386 41.7969 38.3333C41.7969 42.9281 38.0466 46.6667 33.4375 46.6667ZM33.4375 33.3333C30.6725 33.3333 28.4219 35.577 28.4219 38.3333C28.4219 41.0897 30.6725 43.3333 33.4375 43.3333C36.2025 43.3333 38.4531 41.0897 38.4531 38.3333C38.4531 35.577 36.2025 33.3333 33.4375 33.3333Z" fill="#284997"/>
<path d="M22.0486 53.8598C21.9131 53.8598 21.7776 53.8435 21.6405 53.8102C20.7466 53.5864 20.2013 52.6814 20.4249 51.7887C21.5352 47.3665 24.9328 43.7467 29.2913 42.3429C30.1754 42.0581 31.1133 42.5415 31.3958 43.4163C31.6807 44.2936 31.1991 45.2335 30.319 45.5151C27.0496 46.5682 24.5009 49.283 23.6666 52.6001C23.4797 53.3569 22.7997 53.8598 22.0486 53.8598Z" fill="#284997"/>
<path d="M44.7659 53.9136C44.0157 53.9136 43.3316 53.4033 43.1431 52.6432C42.3267 49.3213 39.7903 46.5951 36.5258 45.5282C35.6498 45.2417 35.1698 44.3018 35.4572 43.4253C35.7429 42.5537 36.6825 42.0687 37.5674 42.36C41.921 43.7818 45.3015 47.417 46.3913 51.8465C46.6101 52.7401 46.0615 53.6434 45.166 53.8631C45.0337 53.8981 44.8982 53.9136 44.7659 53.9136Z" fill="#284997"/>
<path d="M105.328 70H1.67188C0.746956 70 0 69.2553 0 68.3333C0 67.4113 0.746956 66.6666 1.67188 66.6666H105.328C106.253 66.6666 107 67.4113 107 68.3333C107 69.2553 106.253 70 105.328 70Z" fill="#284997"/>
<path d="M3.34375 80C1.49963 80 0 78.505 0 76.6667C0 75.7446 0.746956 75 1.67188 75C2.59679 75 3.34375 75.7446 3.34375 76.6667V76.6699C4.26867 76.6699 5.01562 77.4137 5.01562 78.335C5.01562 79.2554 4.26867 80 3.34375 80Z" fill="#284997"/>
<path d="M1.67188 78.3333C0.746956 78.3333 0 77.5887 0 76.6666V68.3333C0 67.4113 0.746956 66.6666 1.67188 66.6666C2.59679 66.6666 3.34375 67.4113 3.34375 68.3333V76.6666C3.34375 77.5887 2.59679 78.3333 1.67188 78.3333Z" fill="#284997"/>
<path d="M103.656 80C102.731 80 101.984 79.2554 101.984 78.3333C101.984 77.4113 102.731 76.6667 103.656 76.6667C103.656 75.7446 104.403 75 105.328 75C106.253 75 107 75.7446 107 76.6667C107 78.505 105.5 80 103.656 80Z" fill="#284997"/>
<path d="M105.328 78.3333C104.403 78.3333 103.656 77.5887 103.656 76.6666V68.3333C103.656 67.4113 104.403 66.6666 105.328 66.6666C106.253 66.6666 107 67.4113 107 68.3333V76.6666C107 77.5887 106.253 78.3333 105.328 78.3333Z" fill="#284997"/>
<path d="M103.656 80H3.34375C2.41883 80 1.67188 79.2553 1.67188 78.3333C1.67188 77.4113 2.41883 76.6666 3.34375 76.6666H103.656C104.581 76.6666 105.328 77.4113 105.328 78.3333C105.328 79.2553 104.581 80 103.656 80Z" fill="#284997"/>
<path d="M90.2812 28.3333H60.1875C59.2626 28.3333 58.5156 27.5863 58.5156 26.6667C58.5156 25.7471 59.2626 25 60.1875 25H90.2812C91.2062 25 91.9531 25.7471 91.9531 26.6667C91.9531 27.5863 91.2062 28.3333 90.2812 28.3333Z" fill="#284997"/>
<path d="M75.2344 35H60.1875C59.2626 35 58.5156 34.2529 58.5156 33.3333C58.5156 32.4137 59.2626 31.6666 60.1875 31.6666H75.2344C76.1593 31.6666 76.9062 32.4137 76.9062 33.3333C76.9062 34.2529 76.1593 35 75.2344 35Z" fill="#284997"/>
<path d="M90.2812 48.3333H70.2188C69.2938 48.3333 68.5469 47.5887 68.5469 46.6667C68.5469 45.7446 69.2938 45 70.2188 45H90.2812C91.2062 45 91.9531 45.7446 91.9531 46.6667C91.9531 47.5887 91.2062 48.3333 90.2812 48.3333Z" fill="#284997"/>
<path d="M63.5312 48.3333H60.1875C59.2626 48.3333 58.5156 47.5887 58.5156 46.6667C58.5156 45.7446 59.2626 45 60.1875 45H63.5312C64.4562 45 65.2031 45.7446 65.2031 46.6667C65.2031 47.5887 64.4562 48.3333 63.5312 48.3333Z" fill="#284997"/>
<path d="M90.2812 55H70.2188C69.2938 55 68.5469 54.2553 68.5469 53.3333C68.5469 52.4113 69.2938 51.6666 70.2188 51.6666H90.2812C91.2062 51.6666 91.9531 52.4113 91.9531 53.3333C91.9531 54.2553 91.2062 55 90.2812 55Z" fill="#284997"/>
<path d="M63.5312 55H60.1875C59.2626 55 58.5156 54.2553 58.5156 53.3333C58.5156 52.4113 59.2626 51.6666 60.1875 51.6666H63.5312C64.4562 51.6666 65.2031 52.4113 65.2031 53.3333C65.2031 54.2553 64.4562 55 63.5312 55Z" fill="#284997"/>
</svg>
