<svg width="81" height="80" viewBox="0 0 81 80" fill="none" xmlns="http://www.w3.org/2000/svg">
<rect width="81" height="80" fill="black" fill-opacity="0"/>
<rect width="81" height="80" fill="black" fill-opacity="0"/>
<path d="M59.9107 5.61404C59.2613 2.41544 56.4416 0 53.069 0C52.2981 0 51.6724 0.627368 51.6724 1.40351C51.6724 2.17965 52.2981 2.80702 53.069 2.80702C55.3789 2.80702 57.2586 4.69614 57.2586 7.01754C57.2586 9.33895 55.3789 11.2281 53.069 11.2281C52.2981 11.2281 51.6724 11.8554 51.6724 12.6316C51.6724 13.4077 52.2981 14.0351 53.069 14.0351C56.4402 14.0351 59.2613 11.6196 59.9107 8.42105H78.2069V21.0526H2.7931V8.42105H22.3448H26.5345C27.3054 8.42105 27.931 7.79368 27.931 7.01754C27.931 6.2414 27.3054 5.61404 26.5345 5.61404H23.9983C24.5765 3.98316 26.1127 2.80702 27.931 2.80702C30.2409 2.80702 32.1207 4.69614 32.1207 7.01754C32.1207 9.33895 30.2409 11.2281 27.931 11.2281C27.1601 11.2281 26.5345 11.8554 26.5345 12.6316C26.5345 13.4077 27.1601 14.0351 27.931 14.0351C31.7813 14.0351 34.9138 10.887 34.9138 7.01754C34.9138 3.14807 31.7813 0 27.931 0C24.5598 0 21.7387 2.41544 21.0893 5.61404H0V23.8596V80H81V23.8596V5.61404H59.9107ZM78.2069 77.193H2.7931V23.8596H78.2069V77.193Z" fill="#284997"/>
<path d="M36.3104 2.80702C38.6203 2.80702 40.5 4.69614 40.5 7.01754C40.5 9.33895 38.6203 11.2281 36.3104 11.2281C35.5395 11.2281 34.9138 11.8554 34.9138 12.6316C34.9138 13.4077 35.5395 14.0351 36.3104 14.0351C40.1607 14.0351 43.2931 10.887 43.2931 7.01754C43.2931 3.14807 40.1607 0 36.3104 0C35.5395 0 34.9138 0.627368 34.9138 1.40351C34.9138 2.17965 35.5395 2.80702 36.3104 2.80702Z" fill="#284997"/>
<path d="M44.6896 2.80702C46.9995 2.80702 48.8793 4.69614 48.8793 7.01754C48.8793 9.33895 46.9995 11.2281 44.6896 11.2281C43.9187 11.2281 43.2931 11.8554 43.2931 12.6316C43.2931 13.4077 43.9187 14.0351 44.6896 14.0351C48.5399 14.0351 51.6724 10.887 51.6724 7.01754C51.6724 3.14807 48.5399 0 44.6896 0C43.9187 0 43.2931 0.627368 43.2931 1.40351C43.2931 2.17965 43.9187 2.80702 44.6896 2.80702Z" fill="#284997"/>
<path d="M12.569 35.0878H43.2931C44.064 35.0878 44.6897 34.4604 44.6897 33.6843C44.6897 32.9081 44.064 32.2808 43.2931 32.2808H12.569C11.7981 32.2808 11.1724 32.9081 11.1724 33.6843C11.1724 34.4604 11.7981 35.0878 12.569 35.0878Z" fill="#284997"/>
<path d="M68.431 54.7368H47.4827C46.7118 54.7368 46.0862 55.3642 46.0862 56.1403C46.0862 56.9165 46.7118 57.5438 47.4827 57.5438H68.431C69.2019 57.5438 69.8276 56.9165 69.8276 56.1403C69.8276 55.3642 69.2019 54.7368 68.431 54.7368Z" fill="#284997"/>
<path d="M12.569 46.3158H26.5345C27.3054 46.3158 27.931 45.6884 27.931 44.9123C27.931 44.1362 27.3054 43.5088 26.5345 43.5088H12.569C11.7981 43.5088 11.1724 44.1362 11.1724 44.9123C11.1724 45.6884 11.7981 46.3158 12.569 46.3158Z" fill="#284997"/>
<path d="M68.431 65.965H54.4655C53.6946 65.965 53.069 66.5923 53.069 67.3685C53.069 68.1446 53.6946 68.772 54.4655 68.772H68.431C69.2019 68.772 69.8276 68.1446 69.8276 67.3685C69.8276 66.5923 69.2019 65.965 68.431 65.965Z" fill="#284997"/>
<path d="M39.1035 44.9123C39.1035 45.6884 39.7291 46.3158 40.5 46.3158H61.4483C62.2192 46.3158 62.8448 45.6884 62.8448 44.9123C62.8448 44.1362 62.2192 43.5088 61.4483 43.5088H40.5C39.7291 43.5088 39.1035 44.1362 39.1035 44.9123Z" fill="#284997"/>
<path d="M34.5088 45.9087C34.7601 45.642 34.9138 45.2771 34.9138 44.9122C34.9138 44.5459 34.7601 44.181 34.5088 43.9157C33.992 43.3964 33.0424 43.3964 32.5257 43.9157C32.2743 44.181 32.1207 44.5459 32.1207 44.9122C32.1207 45.2771 32.2743 45.642 32.5257 45.9087C32.791 46.174 33.1541 46.3157 33.5172 46.3157C33.8803 46.3157 34.2434 46.174 34.5088 45.9087Z" fill="#284997"/>
<path d="M18.1552 56.1403C18.1552 56.9165 18.7808 57.5438 19.5517 57.5438H40.5C41.2709 57.5438 41.8965 56.9165 41.8965 56.1403C41.8965 55.3642 41.2709 54.7368 40.5 54.7368H19.5517C18.7808 54.7368 18.1552 55.3642 18.1552 56.1403Z" fill="#284997"/>
<path d="M12.569 57.544C12.9321 57.544 13.2952 57.3896 13.5605 57.1369C13.8119 56.8703 13.9655 56.5054 13.9655 56.1405C13.9655 55.7741 13.8119 55.4092 13.5605 55.158C13.0438 54.6247 12.0941 54.6247 11.5774 55.144C11.326 55.4092 11.1724 55.7741 11.1724 56.1405C11.1724 56.5054 11.326 56.8703 11.5774 57.1369C11.8428 57.3896 12.1919 57.544 12.569 57.544Z" fill="#284997"/>
<path d="M68.431 46.3157C68.7941 46.3157 69.1572 46.174 69.4226 45.9087C69.6879 45.642 69.8276 45.2771 69.8276 44.9122C69.8276 44.5459 69.6879 44.181 69.4226 43.9157C68.8919 43.3964 67.9562 43.3964 67.4395 43.9157C67.1881 44.181 67.0345 44.5459 67.0345 44.9122C67.0345 45.2771 67.1881 45.642 67.4395 45.9087C67.7048 46.174 68.0679 46.3157 68.431 46.3157Z" fill="#284997"/>
<path d="M47.4828 65.965H12.569C11.7981 65.965 11.1724 66.5923 11.1724 67.3685C11.1724 68.1446 11.7981 68.772 12.569 68.772H47.4828C48.2537 68.772 48.8793 68.1446 48.8793 67.3685C48.8793 66.5923 48.2537 65.965 47.4828 65.965Z" fill="#284997"/>
</svg>
