<svg width="75" height="80" viewBox="0 0 75 80" fill="none" xmlns="http://www.w3.org/2000/svg">
<rect width="75" height="80" fill="black" fill-opacity="0"/>
<rect width="75" height="80" fill="black" fill-opacity="0"/>
<rect width="75" height="80" fill="black" fill-opacity="0"/>
<path d="M70.982 0H20.0893H9.37494C7.0981 0 5.35709 1.73329 5.35709 4.00003V4.12894C2.2682 4.73207 0 7.39115 0 10.6666C0 13.9421 2.2682 16.6012 5.35709 17.2044V18.7956C2.2682 19.3987 0 22.0578 0 25.3333C0 28.6088 2.2682 31.2679 5.35709 31.871V33.4623C2.2682 34.0654 0 36.7245 0 40C0 43.2755 2.2682 45.9346 5.35709 46.5377V48.129C2.2682 48.7321 0 51.3912 0 54.6667C0 57.9422 2.2682 60.6013 5.35709 61.2044V62.7956C2.2682 63.3988 0 66.0579 0 69.3334C0 72.6088 2.2682 75.2679 5.35709 75.8711V76C5.35709 78.2667 7.0981 80 9.37494 80H20.0893H70.9821C73.259 80 75 78.2667 75 76V4.00003C74.9998 1.73329 73.2588 0 70.982 0ZM2.67846 10.6668C2.67846 8.87132 3.77129 7.41162 5.35709 6.88177V14.4518C3.77145 13.922 2.67846 12.4621 2.67846 10.6668ZM2.67846 25.3335C2.67846 23.538 3.77129 22.0783 5.35709 21.5484V29.1185C3.77145 28.5888 2.67846 27.129 2.67846 25.3335ZM2.67846 40.0003C2.67846 38.2048 3.77129 36.7451 5.35709 36.2153V43.7853C3.77145 43.2555 2.67846 41.7958 2.67846 40.0003ZM2.67846 54.6671C2.67846 52.8717 3.77129 51.412 5.35709 50.8821V58.4522C3.77145 57.9223 2.67846 56.4625 2.67846 54.6671ZM2.67846 69.3338C2.67846 67.5383 3.77129 66.0786 5.35709 65.5488V73.1189C3.77145 72.5892 2.67846 71.1293 2.67846 69.3338ZM8.03571 76.0006V65.5488C9.62135 66.0786 10.7143 67.5385 10.7143 69.3338C10.7143 70.1338 11.25 70.6671 12.0536 70.6671C12.8571 70.6671 13.3928 70.1338 13.3928 69.3338C13.3928 66.0583 11.1246 63.3992 8.03571 62.7961V50.882C9.62135 51.4118 10.7143 52.8717 10.7143 54.667C10.7143 55.467 11.25 56.0003 12.0536 56.0003C12.8571 56.0003 13.3928 55.467 13.3928 54.667C13.3928 51.3915 11.1246 48.7324 8.03571 48.1293V36.2151C9.62135 36.7451 10.7142 38.2048 10.7142 40.0003C10.7142 40.8003 11.2498 41.3336 12.0534 41.3336C12.857 41.3336 13.3928 40.8003 13.3928 40.0003C13.3928 36.7248 11.1246 34.0657 8.03571 33.4626V21.5484C9.62135 22.0783 10.7143 23.5382 10.7143 25.3335C10.7143 26.1335 11.25 26.6668 12.0536 26.6668C12.8571 26.6668 13.3928 26.1335 13.3928 25.3335C13.3928 22.058 11.1246 19.3989 8.03571 18.7958V6.88162C9.62135 7.41146 10.7143 8.87132 10.7143 10.6666C10.7143 11.4667 11.25 11.9999 12.0536 11.9999C12.8571 11.9999 13.3928 11.4667 13.3928 10.6666C13.3928 7.39115 11.1246 4.73207 8.03571 4.12894V4.00003C8.03571 3.20003 8.57137 2.66674 9.37494 2.66674H18.7499V77.334H9.37494C8.57137 77.3339 8.03571 76.8006 8.03571 76.0006ZM72.3214 76.0006C72.3214 76.8006 71.7857 77.3339 70.9821 77.3339H21.4285V2.66674H70.982C71.7856 2.66674 72.3212 3.20003 72.3212 4.00003V76.0006H72.3214Z" fill="#284997"/>
<path d="M35.2231 28.9336C35.491 29.2003 35.7587 29.3336 36.1605 29.3336C36.5623 29.3336 36.8302 29.2003 37.098 28.9336L37.4998 28.5336V36.0003C37.4998 36.8003 38.0354 37.3336 38.839 37.3336H54.9104C55.714 37.3336 56.2497 36.8003 56.2497 36.0003V28.5336L56.6514 28.9336C56.9193 29.2003 57.1871 29.3336 57.5889 29.3336C57.9907 29.3336 58.2586 29.2003 58.5263 28.9336L62.5442 24.9335C62.8121 24.6668 62.946 24.4003 62.946 24.0002C62.946 23.6002 62.8121 23.3335 62.5442 23.067L47.8125 8.40012C47.5446 8.1334 47.2768 8.00012 46.875 8.00012C46.4732 8.00012 46.2053 8.1334 45.9376 8.40012L31.2054 23.067C30.6697 23.6002 30.6697 24.4003 31.2054 24.9337L35.2231 28.9336ZM53.5713 34.6671H40.1785V25.867L46.875 19.2002L53.5715 25.867V34.6671H53.5713ZM46.8749 11.2001L59.732 24.0002L57.5892 26.1335L55.8483 24.4004L55.8482 24.4003L47.8125 16.4002C47.6786 16.1335 47.4107 16.0002 47.1428 16.0002C47.1428 16.0002 47.0089 16.0002 46.8749 16.0002C46.4731 16.0002 46.2052 16.1335 45.9374 16.4002L37.9017 24.4003L37.9016 24.4004L36.1607 26.1335L34.0177 24.0002L46.8749 11.2001Z" fill="#284997"/>
<path d="M28.125 50.6671H41.5178C42.3214 50.6671 42.857 50.1338 42.857 49.3338C42.857 48.5338 42.3214 48.0005 41.5178 48.0005H28.125C27.3214 48.0005 26.7858 48.5338 26.7858 49.3338C26.7858 50.1338 27.3214 50.6671 28.125 50.6671Z" fill="#284997"/>
<path d="M46.8749 48.0004C46.0713 48.0004 45.5356 48.5337 45.5356 49.3337C45.5356 50.1337 46.0713 50.6669 46.8749 50.6669H56.2498C57.0534 50.6669 57.589 50.1337 57.589 49.3337C57.589 48.5337 57.0534 48.0004 56.2498 48.0004H46.8749Z" fill="#284997"/>
<path d="M65.6249 48.0004H61.607C60.8035 48.0004 60.2678 48.5337 60.2678 49.3337C60.2678 50.1337 60.8035 50.6669 61.607 50.6669H65.6249C66.4285 50.6669 66.9641 50.1337 66.9641 49.3337C66.9641 48.5337 66.4285 48.0004 65.6249 48.0004Z" fill="#284997"/>
<path d="M65.6249 56.0004H56.25C55.4464 56.0004 54.9107 56.5337 54.9107 57.3337C54.9107 58.1337 55.4464 58.667 56.25 58.667H65.6249C66.4285 58.667 66.9641 58.1337 66.9641 57.3337C66.9641 56.5337 66.4285 56.0004 65.6249 56.0004Z" fill="#284997"/>
<path d="M52.2321 57.3337C52.2321 56.5337 51.6964 56.0004 50.8929 56.0004H40.1785C39.375 56.0004 38.8393 56.5337 38.8393 57.3337C38.8393 58.1337 39.375 58.667 40.1785 58.667H50.8929C51.6963 58.6671 52.2321 58.1337 52.2321 57.3337Z" fill="#284997"/>
<path d="M28.125 58.6671H34.8215C35.625 58.6671 36.1607 58.1338 36.1607 57.3338C36.1607 56.5338 35.625 56.0005 34.8215 56.0005H28.125C27.3214 56.0005 26.7858 56.5338 26.7858 57.3338C26.7858 58.1338 27.3214 58.6671 28.125 58.6671Z" fill="#284997"/>
<path d="M37.4999 64.0006H28.125C27.3214 64.0006 26.7858 64.5339 26.7858 65.3339C26.7858 66.1339 27.3214 66.6672 28.125 66.6672H37.4999C38.3035 66.6672 38.8392 66.1339 38.8392 65.3339C38.8392 64.5339 38.3035 64.0006 37.4999 64.0006Z" fill="#284997"/>
<path d="M54.9106 64.0006H42.857C42.0534 64.0006 41.5178 64.5339 41.5178 65.3339C41.5178 66.1339 42.0534 66.6672 42.857 66.6672H54.9106C55.7141 66.6672 56.2498 66.1339 56.2498 65.3339C56.2498 64.5339 55.7141 64.0006 54.9106 64.0006Z" fill="#284997"/>
<path d="M65.6249 64.0006H60.2678C59.4642 64.0006 58.9286 64.5339 58.9286 65.3339C58.9286 66.1339 59.4642 66.6672 60.2678 66.6672H65.6249C66.4285 66.6672 66.9641 66.1339 66.9641 65.3339C66.9641 64.5339 66.4285 64.0006 65.6249 64.0006Z" fill="#284997"/>
</svg>
