<?xml version="1.0" encoding="UTF-8"?><!DOCTYPE svg PUBLIC "-//W3C//DTD SVG 1.1//EN" "http://www.w3.org/Graphics/SVG/1.1/DTD/svg11.dtd"><svg xmlns="http://www.w3.org/2000/svg" xmlns:xlink="http://www.w3.org/1999/xlink"><symbol id="icon--fb" viewBox="0 0 10 16"><path d="M8.757.003L6.575 0C4.122 0 2.538 1.546 2.538 3.938v1.815H.343A.335.335 0 000 6.08v2.63c0 .18.154.326.343.326h2.195v6.638c0 .18.153.326.343.326h2.863c.19 0 .344-.146.344-.326V9.036h2.565c.19 0 .344-.146.344-.326V6.08a.319.319 0 00-.1-.231.352.352 0 00-.243-.096H6.088V4.214c0-.74.185-1.115 1.199-1.115h1.47c.19 0 .343-.147.343-.327V.33a.335.335 0 00-.343-.327z" fill="#AAA"/></symbol><symbol id="icon--phone" viewBox="0 0 16 16"><path fill="none" d="M0 0h16v16H0z"/><path d="M12.652 9.911c-.328-.34-.724-.523-1.143-.523-.416 0-.815.179-1.157.52l-1.069 1.064c-.087-.047-.175-.091-.26-.135-.122-.061-.237-.118-.335-.18-1-.634-1.91-1.461-2.783-2.532-.423-.534-.707-.983-.913-1.439.277-.253.534-.516.785-.77.094-.094.189-.192.284-.286.71-.71.71-1.628 0-2.337l-.924-.922a14.076 14.076 0 01-.314-.321c-.203-.21-.416-.425-.636-.628-.328-.324-.72-.497-1.133-.497-.412 0-.811.173-1.15.497l-.006.007-1.15 1.158c-.433.432-.68.959-.734 1.57-.081.986.21 1.905.433 2.506.548 1.476 1.366 2.843 2.587 4.309a15.912 15.912 0 005.3 4.143c.777.368 1.815.804 2.975.878.071.004.146.007.213.007.781 0 1.438-.28 1.952-.838.003-.006.01-.01.013-.016.176-.213.379-.406.592-.612.145-.138.294-.283.44-.435.334-.348.51-.753.51-1.169 0-.418-.179-.82-.52-1.158l-1.857-1.86zm1.21 3.556c-.003 0-.003.004 0 0-.131.142-.267.27-.412.412-.22.21-.443.43-.653.676-.341.364-.744.537-1.271.537-.051 0-.105 0-.156-.004-1.004-.064-1.938-.456-2.638-.79a15.017 15.017 0 01-4.991-3.904c-1.154-1.388-1.925-2.67-2.435-4.049C.99 5.505.876 4.85.927 4.231a1.55 1.55 0 01.467-1.002l1.153-1.152c.166-.155.341-.24.514-.24.213 0 .385.129.494.237l.01.01c.206.192.402.391.609.604.104.108.213.216.32.328l.924.922c.359.358.359.689 0 1.047-.098.097-.193.195-.29.29-.285.29-.555.56-.85.824-.006.007-.013.01-.017.017-.29.29-.236.574-.175.766l.01.03c.24.582.578 1.129 1.092 1.78l.003.004c.934 1.148 1.918 2.043 3.004 2.728.138.088.28.159.416.226.121.061.236.119.334.18.014.006.027.016.04.023a.734.734 0 00.336.085c.28 0 .456-.176.514-.233l1.156-1.155c.115-.115.298-.254.511-.254.21 0 .382.132.487.247l.007.007 1.863 1.86c.348.345.348.7.004 1.057zM8.648 3.806a4.29 4.29 0 012.333 1.209 4.303 4.303 0 011.21 2.33c.038.223.23.378.45.378a.456.456 0 00.453-.534 5.206 5.206 0 00-1.463-2.82 5.219 5.219 0 00-2.824-1.461.459.459 0 00-.528.371.451.451 0 00.369.527zM15.993 7.058a8.565 8.565 0 00-2.411-4.643A8.585 8.585 0 008.932.007a.455.455 0 10-.149.898 7.687 7.687 0 014.156 2.151 7.647 7.647 0 012.155 4.15c.037.223.23.379.45.379.026 0 .05-.004.077-.007a.447.447 0 00.372-.52z" fill="#284997"/></symbol><symbol id="icon--tw" viewBox="0 0 16 13"><path d="M16 1.539a6.565 6.565 0 01-1.885.517A3.292 3.292 0 0015.558.24a6.572 6.572 0 01-2.085.796A3.282 3.282 0 007.88 4.03 9.32 9.32 0 011.115.602 3.28 3.28 0 002.13 4.983a3.27 3.27 0 01-1.487-.411v.041a3.284 3.284 0 002.633 3.218 3.29 3.29 0 01-1.483.056 3.286 3.286 0 003.067 2.28A6.587 6.587 0 010 11.524 9.292 9.292 0 005.032 13c6.038 0 9.34-5 9.34-9.338 0-.142-.004-.284-.01-.424A6.67 6.67 0 0016 1.538z" fill="#AAA"/></symbol><symbol id="icon--vk" viewBox="0 0 16 16"><path d="M0 0v16h16V0H0zm11.67 8.916l1.39 1.596a.315.315 0 01-.238.523h-1.568a.98.98 0 01-.668-.262l-.464-.432c-.524-.459-.747-.616-.956-.616-.21 0-.262.157-.262.563 0 .406-.08.747-1.284.747-1.206 0-2.149-.904-3.21-2.306a10.726 10.726 0 01-1.533-2.908.293.293 0 01.28-.38h1.255c.239 0 .456.138.556.355.103.222.28.565.582 1.073.429.72.84 1.045 1.074 1.183a.13.13 0 00.197-.113V6.211a.938.938 0 00-.23-.615l-.177-.204a.081.081 0 01.06-.134h1.984a.55.55 0 01.55.55v2.01c0 .13.168.18.24.072l1.427-2.151a.607.607 0 01.506-.272h1.676c.229 0 .368.252.246.446L11.621 8.27a.543.543 0 00.05.646z" fill="#AAA"/></symbol></svg>