<svg width="69" height="80" viewBox="0 0 69 80" fill="none" xmlns="http://www.w3.org/2000/svg">
<rect width="69" height="80" fill="black" fill-opacity="0"/>
<rect width="69" height="80" fill="black" fill-opacity="0"/>
<rect width="69" height="80" fill="black" fill-opacity="0"/>
<path d="M68.9629 66.394L60.5223 30.6456V6.73379C60.5223 5.9716 59.9025 5.35378 59.1374 5.35378H54.5507L53.538 1.06424C53.363 0.322202 52.6173 -0.137331 51.8726 0.0368885L29.1924 5.35363H6.94691C6.18183 5.35363 5.56197 5.9716 5.56197 6.73363V10.8933L1.0678 11.9469C0.710118 12.0308 0.400733 12.2527 0.207387 12.564C0.0140403 12.8752 -0.0472725 13.2501 0.0367775 13.6063L5.56197 37.0072V73.8467C5.56197 74.6089 6.18183 75.2267 6.94691 75.2267H14.586L15.462 78.9361C15.5462 79.2923 15.7689 79.6008 16.0812 79.7934C16.302 79.9295 16.5546 80 16.8102 80C16.9162 80 17.0226 79.9878 17.1275 79.9634L37.3327 75.2267H59.1376C59.9026 75.2267 60.5225 74.6087 60.5225 73.8467V69.7904L67.9321 68.0534C68.6764 67.8789 69.1379 67.1359 68.9629 66.394ZM57.7525 8.11379V18.9138L55.2024 8.11379H57.7525ZM8.33185 8.11379H17.4185L8.33185 10.2441V8.11379ZM8.33185 72.4668V48.7391L13.9342 72.4668H8.33185ZM57.7525 72.4668H49.1063L57.7525 70.44V72.4668ZM17.8409 76.9608L3.05035 14.3176L51.1588 3.03956L65.9495 65.6826L17.8409 76.9608Z" fill="#284997"/>
<rect width="17.8326" height="25.9859" fill="black" fill-opacity="0" transform="translate(9.44189 14.8558)"/>
<rect width="17.8326" height="25.9859" fill="black" fill-opacity="0" transform="translate(9.44189 14.8558)"/>
<path d="M27.2378 36.5503L25.9372 31.0423C25.5221 29.2842 24.4447 27.7922 22.9032 26.8414C22.6067 26.6584 22.2994 26.5003 21.9845 26.3661C22.1797 26.1276 22.3619 25.8764 22.5272 25.6106C23.5212 24.0104 23.8306 22.1203 23.3981 20.2886C22.5052 16.507 18.6919 14.1543 14.8961 15.0438C13.0578 15.4748 11.4977 16.5934 10.5033 18.1935C9.50933 19.7937 9.19995 21.6839 9.63243 23.5158C10.156 25.7331 11.6838 27.4584 13.6231 28.3278C12.2676 29.9111 11.6575 32.0931 12.1713 34.2694L13.4719 39.7774C13.622 40.413 14.1909 40.8418 14.8189 40.8418C14.924 40.8418 15.0306 40.8297 15.1374 40.8047L26.2064 38.2099C26.5639 38.1261 26.8735 37.9042 27.0668 37.5932C27.2605 37.2817 27.3218 36.9067 27.2378 36.5503ZM12.3291 22.8836C12.066 21.7693 12.2541 20.6197 12.8588 19.6465C13.4634 18.6732 14.4125 17.9929 15.5307 17.7309C15.8606 17.6535 16.1905 17.6165 16.5157 17.6165C18.4658 17.6165 20.2364 18.9496 20.7019 20.9209C20.9651 22.0351 20.7769 23.1848 20.1722 24.1579C19.5676 25.1309 18.6189 25.8112 17.5008 26.0736L17.4996 26.0739C15.1902 26.6142 12.872 25.1834 12.3291 22.8836ZM15.8513 37.8019L14.868 33.6374C14.3609 31.4892 15.7021 29.3306 17.8577 28.8253L18.4116 28.6955C18.7195 28.6233 19.0302 28.5876 19.3388 28.5876C20.0766 28.5876 20.8021 28.7917 21.4451 29.1884C22.3571 29.7511 22.995 30.6341 23.2405 31.6745L24.2239 35.8392L15.8513 37.8019Z" fill="#284997"/>
<rect width="19.6581" height="6.71967" fill="black" fill-opacity="0" transform="translate(21.4273 63.8152)"/>
<rect width="19.6581" height="6.71967" fill="black" fill-opacity="0" transform="translate(21.4273 63.8152)"/>
<path d="M41.0483 64.8794C40.8729 64.1375 40.1272 63.678 39.3829 63.852L22.4954 67.8111C21.7509 67.9855 21.2894 68.7286 21.4644 69.4705C21.6144 70.1063 22.1833 70.5349 22.8114 70.5349C22.9164 70.5349 23.0231 70.5228 23.1298 70.4978L40.0175 66.5389C40.762 66.3644 41.2235 65.6214 41.0483 64.8794Z" fill="#284997"/>
<rect width="37.965" height="11.0112" fill="black" fill-opacity="0" transform="translate(20.008 53.5138)"/>
<rect width="37.965" height="11.0112" fill="black" fill-opacity="0" transform="translate(20.008 53.5138)"/>
<path d="M57.9359 54.578C57.7604 53.836 57.0136 53.3765 56.2704 53.5507L21.0761 61.8012C20.3315 61.9759 19.8701 62.7187 20.0451 63.4606C20.1951 64.0963 20.764 64.5249 21.3921 64.5249C21.4971 64.5249 21.6039 64.5129 21.7105 64.4879L56.9049 56.2374C57.6496 56.0629 58.1111 55.3199 57.9359 54.578Z" fill="#284997"/>
<rect width="37.965" height="11.0111" fill="black" fill-opacity="0" transform="translate(18.5891 47.5039)"/>
<rect width="37.965" height="11.0111" fill="black" fill-opacity="0" transform="translate(18.5891 47.5039)"/>
<path d="M56.517 48.5681C56.3417 47.8263 55.5949 47.3666 54.8515 47.5408L19.6571 55.7913C18.9126 55.966 18.4511 56.7088 18.6261 57.4507C18.7762 58.0865 19.3451 58.515 19.9731 58.515C20.0782 58.515 20.185 58.503 20.2916 58.478L55.4859 50.2275C56.2306 50.053 56.6921 49.31 56.517 48.5681Z" fill="#284997"/>
<rect width="37.965" height="11.0111" fill="black" fill-opacity="0" transform="translate(17.1702 41.4943)"/>
<rect width="37.965" height="11.0111" fill="black" fill-opacity="0" transform="translate(17.1702 41.4943)"/>
<path d="M55.0981 42.5585C54.9228 41.8163 54.1761 41.357 53.4327 41.5311L18.2383 49.7816C17.4938 49.9563 17.0323 50.6991 17.2073 51.441C17.3574 52.0768 17.9263 52.5054 18.5543 52.5054C18.6593 52.5054 18.7661 52.4933 18.8728 52.4683L54.0671 44.2178C54.8118 44.0433 55.2733 43.3003 55.0981 42.5585Z" fill="#284997"/>
<rect width="37.965" height="11.011" fill="black" fill-opacity="0" transform="translate(15.7511 35.4845)"/>
<rect width="37.965" height="11.011" fill="black" fill-opacity="0" transform="translate(15.7511 35.4845)"/>
<path d="M53.679 36.5488C53.504 35.8067 52.757 35.3471 52.0135 35.5214L16.8192 43.7719C16.0747 43.9466 15.6132 44.6894 15.7882 45.4313C15.9382 46.0671 16.5071 46.4955 17.1352 46.4955C17.2402 46.4955 17.347 46.4835 17.4536 46.4585L52.648 38.208C53.3925 38.0336 53.854 37.2907 53.679 36.5488Z" fill="#284997"/>
<rect width="21.3612" height="7.119" fill="black" fill-opacity="0" transform="translate(30.1625 26.1989)"/>
<rect width="21.3612" height="7.119" fill="black" fill-opacity="0" transform="translate(30.1625 26.1989)"/>
<path d="M51.4867 27.2631C51.3114 26.5211 50.5657 26.0614 49.8212 26.2358L31.2306 30.5941C30.4861 30.7685 30.0246 31.5116 30.1996 32.2535C30.3497 32.8893 30.9186 33.3178 31.5466 33.3178C31.6517 33.3178 31.7583 33.3058 31.8651 33.2808L50.4556 28.9225C51.2002 28.748 51.6617 28.0052 51.4867 27.2631Z" fill="#284997"/>
<rect width="21.3612" height="7.11889" fill="black" fill-opacity="0" transform="translate(28.7435 20.1891)"/>
<rect width="21.3612" height="7.11889" fill="black" fill-opacity="0" transform="translate(28.7435 20.1891)"/>
<path d="M50.0677 21.2534C49.8927 20.5114 49.147 20.0515 48.4022 20.2261L29.8116 24.5842C29.0671 24.7586 28.6056 25.5017 28.7806 26.2436C28.9307 26.8794 29.4996 27.308 30.1276 27.308C30.2327 27.308 30.3393 27.2959 30.4461 27.2709L49.0366 22.9126C49.7812 22.7383 50.2427 21.9953 50.0677 21.2534Z" fill="#284997"/>
<rect width="11.1435" height="4.72342" fill="black" fill-opacity="0" transform="translate(26.6792 13.8408)"/>
<rect width="11.1435" height="4.72342" fill="black" fill-opacity="0" transform="translate(26.6792 13.8408)"/>
<path d="M37.7856 14.905C37.6106 14.163 36.865 13.7036 36.1201 13.8777L27.7473 15.8405C27.0027 16.0152 26.5412 16.758 26.7162 17.4999C26.8661 18.1356 27.4349 18.5642 28.0632 18.5642C28.1683 18.5642 28.2749 18.5522 28.3817 18.5272L36.7546 16.5644C37.4991 16.3897 37.9606 15.6469 37.7856 14.905Z" fill="#284997"/>
</svg>
