<svg width="58" height="60" viewBox="0 0 58 60" fill="none" xmlns="http://www.w3.org/2000/svg">
<rect width="58" height="60" fill="black" fill-opacity="0"/>
<rect width="39.5307" height="60" fill="black" fill-opacity="0"/>
<rect width="39.5307" height="60" fill="black" fill-opacity="0"/>
<path d="M38.642 0H0.888686C0.397946 0 0 0.399023 0 0.891094V59.1089C0 59.601 0.397946 60 0.888686 60H5.1103C5.60104 60 5.99898 59.601 5.99898 59.1089C5.99898 58.6168 5.60104 58.2178 5.1103 58.2178H1.77737V1.78219H37.7533V4.15723C37.7533 4.6493 38.1512 5.04832 38.642 5.04832C39.1327 5.04832 39.5307 4.6493 39.5307 4.15723V0.891094C39.5307 0.399023 39.1327 0 38.642 0Z" fill="#284997"/>
<rect width="32.3465" height="5.94457" fill="black" fill-opacity="0" transform="translate(7.18405 54.0554)"/>
<rect width="32.3465" height="5.94457" fill="black" fill-opacity="0" transform="translate(7.18405 54.0554)"/>
<path d="M38.6418 54.0554C38.1511 54.0554 37.7532 54.4544 37.7532 54.9465V58.2178H8.07274C7.582 58.2178 7.18405 58.6168 7.18405 59.1089C7.18405 59.601 7.58188 60 8.07274 60H38.6418C39.1326 60 39.5305 59.601 39.5305 59.1089V54.9465C39.5305 54.4544 39.1326 54.0554 38.6418 54.0554Z" fill="#284997"/>
<rect width="13.3155" height="8.61328" fill="black" fill-opacity="0" transform="translate(44.6845 37.0666)"/>
<rect width="13.3155" height="8.61328" fill="black" fill-opacity="0" transform="translate(44.6845 37.0666)"/>
<path d="M57.1113 37.0666C56.6206 37.0666 56.2226 37.4657 56.2226 37.9577V43.8977H45.5732C45.0825 43.8977 44.6845 44.2968 44.6845 44.7888C44.6845 45.2809 45.0825 45.6799 45.5732 45.6799H57.1113C57.6021 45.6799 58 45.2809 58 44.7888V37.9577C57.9999 37.4657 57.6021 37.0666 57.1113 37.0666Z" fill="#284997"/>
<rect width="30.8076" height="29.8362" fill="black" fill-opacity="0" transform="translate(27.1922 6.0423)"/>
<rect width="30.8076" height="29.8362" fill="black" fill-opacity="0" transform="translate(27.1922 6.0423)"/>
<path d="M57.1113 6.0423H28.0809C27.5902 6.0423 27.1922 6.44132 27.1922 6.93339V20.2554C27.1922 20.7475 27.5902 21.1465 28.0809 21.1465C28.5717 21.1465 28.9696 20.7475 28.9696 20.2554V7.82448H56.2225V34.9874C56.2225 35.4794 56.6205 35.8785 57.1112 35.8785C57.6019 35.8785 57.9999 35.4794 57.9999 34.9874V6.93339C57.9999 6.4412 57.6021 6.0423 57.1113 6.0423Z" fill="#284997"/>
<rect width="20.6539" height="30.8911" fill="black" fill-opacity="0" transform="translate(22.8457 22.0175)"/>
<rect width="20.6539" height="30.8911" fill="black" fill-opacity="0" transform="translate(22.8457 22.0175)"/>
<path d="M42.6109 22.0175H23.7344C23.2436 22.0175 22.8457 22.4166 22.8457 22.9086V52.0175C22.8457 52.5096 23.2436 52.9086 23.7344 52.9086H42.6109C43.1016 52.9086 43.4996 52.5097 43.4996 52.0175V22.9086C43.4996 22.4164 43.1018 22.0175 42.6109 22.0175ZM41.7222 51.1264H24.6231V23.7997H41.7222V51.1264Z" fill="#284997"/>
<rect width="6.50433" height="9.36703" fill="black" fill-opacity="0" transform="translate(4.40171 4.53984)"/>
<rect width="6.50433" height="9.36703" fill="black" fill-opacity="0" transform="translate(4.40171 4.53984)"/>
<path d="M10.8942 13.1688V13.1488L8.40968 5.01679C8.31338 4.72711 8.01676 4.53984 7.65388 4.53984C7.28655 4.53984 7.0008 4.72465 6.90777 5.02324L4.43093 13.0917C4.40171 13.1674 4.40171 13.2395 4.40171 13.2765C4.40171 13.6535 4.78809 13.9069 5.14898 13.9069C5.44326 13.9069 5.6756 13.7425 5.74304 13.4872L6.22443 11.8712H9.07141L9.55724 13.5013C9.64045 13.7512 9.8618 13.9066 10.135 13.9066C10.4998 13.9066 10.906 13.6428 10.906 13.2645C10.906 13.2258 10.9 13.1933 10.8942 13.1688ZM6.60461 10.599L7.65271 7.12793L8.69204 10.599H6.60461Z" fill="#284997"/>
<rect width="5.53092" height="9.3668" fill="black" fill-opacity="0" transform="translate(11.4884 4.61133)"/>
<rect width="5.53092" height="9.3668" fill="black" fill-opacity="0" transform="translate(11.4884 4.61133)"/>
<path d="M16.0782 8.98078C16.5307 8.55129 16.782 7.85883 16.782 7.00336C16.782 5.43844 15.9282 4.61133 14.3132 4.61133C12.2426 4.61133 11.6901 6.0027 11.6901 6.82477C11.6901 7.14656 11.7626 7.57406 12.3901 7.57406C12.8072 7.57406 13.0662 7.31426 13.0662 6.89613C13.0662 6.53133 13.2251 5.91949 14.2895 5.91949C15.11 5.91949 15.4296 6.26684 15.4296 7.15793C15.4296 7.95352 15.2403 8.38453 14.2419 8.38453C13.8983 8.38453 13.6489 8.65465 13.6489 9.02684C13.6489 9.39797 13.8976 9.65719 14.2538 9.65719C15.1888 9.65719 15.6434 10.0779 15.6434 10.9433V11.1695C15.6434 12.199 15.2075 12.658 14.2302 12.658C12.8911 12.658 12.8525 11.7386 12.8525 11.6338C12.8525 11.2391 12.5909 11.0034 12.1527 11.0034C11.7058 11.0034 11.4884 11.2369 11.4884 11.717C11.4884 12.8132 12.4535 13.9781 14.242 13.9781C16.007 13.9781 17.0193 12.9545 17.0193 11.1694V10.9432C17.0196 10.0684 16.6963 9.39914 16.0782 8.98078Z" fill="#284997"/>
<rect width="6.50433" height="9.36703" fill="black" fill-opacity="0" transform="translate(41.9021 10.2426)"/>
<rect width="6.50433" height="9.36703" fill="black" fill-opacity="0" transform="translate(41.9021 10.2426)"/>
<path d="M48.3946 18.8716V18.8516L45.91 10.7196C45.8137 10.4299 45.5171 10.2426 45.1542 10.2426C44.7869 10.2426 44.5012 10.4274 44.4081 10.726L41.9313 18.7945C41.9021 18.8702 41.9021 18.9423 41.9021 18.9793C41.9021 19.3563 42.2885 19.6097 42.6494 19.6097C42.9436 19.6097 43.176 19.4453 43.2434 19.19L43.7248 17.5741H46.5718L47.0576 19.2042C47.1408 19.4542 47.3622 19.6096 47.6354 19.6096C48.0002 19.6096 48.4064 19.3458 48.4064 18.9674C48.4064 18.9285 48.4002 18.8961 48.3946 18.8716ZM44.1051 16.3016L45.1532 12.8305L46.1925 16.3016H44.1051Z" fill="#284997"/>
<rect width="5.64943" height="9.29555" fill="black" fill-opacity="0" transform="translate(48.7515 10.314)"/>
<rect width="5.64943" height="9.29555" fill="black" fill-opacity="0" transform="translate(48.7515 10.314)"/>
<path d="M53.8082 16.2183H53.4514V14.218C53.4514 13.8735 53.162 13.6234 52.7635 13.6234C52.3649 13.6234 52.0756 13.8735 52.0756 14.218V16.2183H50.5271L53.0516 11.2214L53.0623 11.1975C53.1016 11.0991 53.1191 11.0173 53.1191 10.9324C53.1191 10.5681 52.7628 10.314 52.443 10.314C52.1722 10.314 51.9357 10.4645 51.8109 10.7148L48.835 16.5995C48.7796 16.6966 48.7515 16.8125 48.7515 16.9438C48.7515 17.3022 49.006 17.5622 49.3563 17.5622H52.0755V19.003C52.0755 19.3487 52.3713 19.6096 52.7634 19.6096C53.1555 19.6096 53.4513 19.3488 53.4513 19.003V17.5622H53.8081C54.135 17.5622 54.401 17.258 54.401 16.8843C54.4012 16.5047 54.1463 16.2183 53.8082 16.2183Z" fill="#284997"/>
<rect width="6.50433" height="9.36703" fill="black" fill-opacity="0" transform="translate(26.4398 26.4597)"/>
<rect width="6.50433" height="9.36703" fill="black" fill-opacity="0" transform="translate(26.4398 26.4597)"/>
<path d="M32.9324 35.0886V35.0686L30.4478 26.9366C30.3515 26.6469 30.0549 26.4597 29.692 26.4597C29.3247 26.4597 29.0389 26.6445 28.9459 26.9431L26.469 35.0115C26.4398 35.0872 26.4398 35.1593 26.4398 35.1963C26.4398 35.5733 26.8262 35.8267 27.1871 35.8267C27.4814 35.8267 27.7137 35.6623 27.7812 35.407L28.2625 33.7911H31.1095L31.5954 35.4212C31.6786 35.6712 31.8999 35.8266 32.1732 35.8266C32.5379 35.8266 32.9442 35.5628 32.9442 35.1844C32.9442 35.1455 32.9381 35.113 32.9324 35.0886ZM28.6428 32.5186L29.6909 29.0475L30.7303 32.5186H28.6428Z" fill="#284997"/>
<rect width="5.51911" height="9.3668" fill="black" fill-opacity="0" transform="translate(33.5266 26.5311)"/>
<rect width="5.51911" height="9.3668" fill="black" fill-opacity="0" transform="translate(33.5266 26.5311)"/>
<path d="M36.2922 30.114H35.3149L35.4654 27.8512H38.0612C38.3894 27.8512 38.6186 27.5774 38.6186 27.1853C38.6186 26.8063 38.3842 26.5311 38.0612 26.5311H34.7372C34.6271 26.5311 34.2627 26.5712 34.1942 27.0866L33.9549 30.5334L33.9542 30.5539C33.9542 30.5741 33.9514 30.6143 33.9488 30.6545C33.9454 30.7094 33.9422 30.7645 33.9422 30.7921C33.9422 30.9709 34.0105 31.3867 34.6421 31.3867H36.2922C37.2192 31.3867 37.6698 31.8659 37.6698 32.8514V33.0775C37.6698 34.0871 37.2153 34.5779 36.2802 34.5779C35.6448 34.5779 34.9027 34.3004 34.9027 33.5178C34.9027 33.2132 34.7188 32.8875 34.2027 32.8875C33.7856 32.8875 33.5266 33.1519 33.5266 33.5773C33.5266 34.6949 34.3921 35.8979 36.2922 35.8979C38.0422 35.8979 39.0458 34.8698 39.0458 33.0773V32.8513C39.0458 31.0862 38.0679 30.114 36.2922 30.114Z" fill="#284997"/>
</svg>
