<svg width="69" height="60" viewBox="0 0 69 60" fill="none" xmlns="http://www.w3.org/2000/svg">
<rect width="69" height="60" fill="black" fill-opacity="0"/>
<rect width="21.8201" height="34.0533" fill="black" fill-opacity="0" transform="translate(16.4028 25.9467)"/>
<rect width="21.8201" height="34.0533" fill="black" fill-opacity="0" transform="translate(16.4028 25.9467)"/>
<path d="M37.1816 49.6044H25.5833L18.6555 37.9524L24.8698 27.5201C25.1639 27.0262 25.002 26.3876 24.5079 26.0935C24.0135 25.7992 23.3746 25.9615 23.0805 26.4552L16.5494 37.4196C16.3541 37.7474 16.3538 38.1557 16.5489 38.4836L23.161 49.6045H21.8099C21.2348 49.6045 20.7686 50.0705 20.7686 50.6453V58.9593C20.7686 59.534 21.2348 60 21.8099 60H25.2303C25.8054 60 26.2716 59.534 26.2716 58.9593C26.2716 58.3845 25.8056 57.9185 25.2303 57.9185H22.851V51.686H24.9701C24.9774 51.6862 24.9845 51.6874 24.9917 51.6874H37.1816C37.7567 51.6874 38.2229 51.2214 38.2229 50.6467C38.2229 50.6462 38.2229 50.6457 38.2229 50.6453C38.2228 50.0704 37.7567 49.6044 37.1816 49.6044Z" fill="#284997"/>
<rect width="69" height="60" fill="black" fill-opacity="0"/>
<rect width="69" height="60" fill="black" fill-opacity="0"/>
<path d="M67.9879 34.5396H65.7346C65.505 26.8943 62.6554 19.6085 57.6484 13.9266C54.3897 10.2285 50.3881 7.39595 45.9669 5.59596H60.6374C61.1243 7.42713 62.7554 8.77723 64.6882 8.77723C67.004 8.77723 68.888 6.83961 68.888 4.45791C68.888 2.07622 67.004 0.1386 64.6882 0.1386C62.6876 0.1386 61.0103 1.58516 60.5905 3.51433H38.6452V1.04074C38.6452 0.465971 38.1921 0 37.6332 0H31.2547C30.6958 0 30.2427 0.465971 30.2427 1.04074V3.51447H8.29737C7.87771 1.5853 6.20042 0.138738 4.19983 0.138738C1.88402 0.138738 0 2.07636 0 4.45791C0 6.83961 1.88402 8.77723 4.19983 8.77723C6.13263 8.77723 7.7637 7.42699 8.25061 5.59596H22.9212C18.4998 7.39595 14.4982 10.2285 11.2396 13.9266C6.23263 19.6085 3.38301 26.8943 3.15337 34.5396H1.01195C0.453081 34.5396 0 35.0055 0 35.5803V42.1403C0 42.7151 0.453081 43.1811 1.01195 43.1811H7.39053C7.9494 43.1811 8.40249 42.7151 8.40249 42.1403V35.5803C8.40249 35.0055 7.9494 34.5396 7.39053 34.5396H5.17822C5.40719 27.4121 8.07029 20.6225 12.739 15.3243C17.3384 10.1047 23.519 6.72845 30.2427 5.73428V7.6008C30.2427 8.17557 30.6958 8.64154 31.2547 8.64154H32.7425L24.5164 22.852C24.2305 23.3458 24.3879 23.9845 24.8681 24.2786C25.3484 24.5727 25.9694 24.4104 26.2553 23.9169L33.4322 11.519V30.7868C31.6886 31.2502 30.3969 32.8815 30.3969 34.8174C30.3969 37.1126 32.2124 38.9797 34.444 38.9797C36.6756 38.9797 38.4913 37.1125 38.4913 34.8174C38.4913 32.8815 37.1996 31.2502 35.4558 30.7868V11.5189L50.7578 37.9524L44.0251 49.6045H40.1818C39.6577 49.6045 39.2266 50.0143 39.1749 50.5396C39.1714 50.5748 39.1697 50.6106 39.1697 50.6466C39.1697 51.2214 39.6228 51.6874 40.1816 51.6874H44.6001C44.6072 51.6874 44.6141 51.6861 44.6211 51.686H46.6804V57.9185H28.5673C28.0084 57.9185 27.5553 58.3845 27.5553 58.9593C27.5553 59.534 28.0084 60 28.5673 60H47.6925C48.2514 60 48.7045 59.534 48.7045 58.9593V50.6452C48.7045 50.0705 48.2514 49.6045 47.6925 49.6045H46.3795L52.8052 38.4835C52.9947 38.1555 52.9946 37.7473 52.8048 37.4195L36.1456 8.64154H37.6334C38.1922 8.64154 38.6453 8.17557 38.6453 7.6008V5.73428C45.369 6.72845 51.5496 10.1047 56.1492 15.3243C60.818 20.6225 63.481 27.4121 63.7099 34.5396H61.6093C61.0505 34.5396 60.5974 35.0055 60.5974 35.5803V42.1403C60.5974 42.7151 61.0505 43.1811 61.6093 43.1811H67.988C68.5469 43.1811 69 42.7151 69 42.1403V35.5803C68.9999 35.0054 68.5468 34.5396 67.9879 34.5396ZM64.6882 2.22023C65.888 2.22023 66.8641 3.2241 66.8641 4.45805C66.8641 5.692 65.888 6.69588 64.6882 6.69588C63.4884 6.69588 62.5123 5.692 62.5123 4.45805C62.5124 3.2241 63.4884 2.22023 64.6882 2.22023ZM4.19983 6.69588C3.00001 6.69588 2.02391 5.692 2.02391 4.45805C2.02391 3.2241 3.00001 2.22023 4.19983 2.22023C5.39964 2.22023 6.37575 3.2241 6.37575 4.45805C6.37575 5.692 5.39964 6.69588 4.19983 6.69588ZM6.37858 36.6209V41.0996H2.02377V36.6209H6.37858ZM36.4675 34.8174C36.4675 35.9649 35.5597 36.8984 34.444 36.8984C33.3283 36.8984 32.4206 35.9648 32.4206 34.8174C32.4206 33.67 33.3284 32.7365 34.444 32.7365C35.5597 32.7364 36.4675 33.6698 36.4675 34.8174ZM36.6214 4.55119V4.55493V6.56005H32.2666V4.55632C32.2666 4.55424 32.2666 4.55202 32.2666 4.54994V2.08149H36.6214V4.55119ZM66.9761 41.0996H62.6212V36.6209H66.9761V41.0996Z" fill="#284997"/>
</svg>
